<!--?xml version="1.0" encoding="UTF-8"?--><svg id="Layer_1" xmlns="http://www.w3.org/2000/svg" viewBox="0 0 1172.5 144" style=""><defs><style>.cls-1{fill:none;stroke:#2c3475;stroke-miterlimit:10;stroke-width:5px;}</style></defs><path class="cls-1 NyiWEkFw_0" d="m75.08,122.71l-19.05-35.25h-16.65v35.25H12.38V20.72h70.65l17.25,17.25v32.25l-15.6,15.6,20.55,36.9h-30.15Zm-35.7-59.1h30.45l3.45-3.45v-12.15l-3.45-3.3h-30.45v18.9Z"></path><path class="cls-1 NyiWEkFw_1" d="m184.28,104.71h-36.9l-6,18h-27.3l38.7-102h27.45l38.7,102h-28.65l-6-18Zm-7.5-22.2l-10.95-32.85-10.95,32.85h21.9Z"></path><path class="cls-1 NyiWEkFw_2" d="m342.83,122.71h-27v-57.75l-22.5,43.35h-10.65l-22.5-43.35v57.75h-25.8V20.72h27.45l26.85,51.6,26.7-51.6h27.45v102Z"></path><path class="cls-1 NyiWEkFw_3" d="m513.67,122.71h-27v-57.75l-22.5,43.35h-10.65l-22.5-43.35v57.75h-25.8V20.72h27.45l26.85,51.6,26.7-51.6h27.45v102Z"></path><path class="cls-1 NyiWEkFw_4" d="m599.33,104.71h-36.9l-6,18h-27.3l38.7-102h27.45l38.7,102h-28.65l-6-18Zm-7.5-22.2l-10.95-32.85-10.95,32.85h21.9Z"></path><path class="cls-1 NyiWEkFw_5" d="m738.82,40.97v61.5l-20.25,20.25h-69.15V20.72h69.15l20.25,20.25Zm-27,10.05l-6.3-6.3h-29.1v54h29.1l6.3-6.3v-41.4Z"></path><path class="cls-1 NyiWEkFw_6" d="m848.92,20.72v102h-22.2l-41.7-60.15v60.15h-25.8V20.72h25.05l38.85,55.95V20.72h25.8Z"></path><path class="cls-1 NyiWEkFw_7" d="m899.03,44.72v15.6h49.8v22.8h-49.8v15.6h57.3v24h-84.3V20.72h84.3v24h-57.3Z"></path><path class="cls-1 NyiWEkFw_8" d="m1062.67,76.96v28.5l-17.25,17.25h-59.25l-15.75-15.75,18.45-18.45,10.8,10.8h32.1l3.9-3.9v-8.4l-2.4-2.4-44.4-2.55-15.75-15.75v-28.35l17.25-17.25h55.95l15.15,15.15-18.45,18.45-10.2-10.2h-28.8l-3.9,3.9v8.25l2.4,2.4,44.4,2.55,15.75,15.75Z"></path><path class="cls-1 NyiWEkFw_9" d="m1167.52,76.96v28.5l-17.25,17.25h-59.25l-15.75-15.75,18.45-18.45,10.8,10.8h32.1l3.9-3.9v-8.4l-2.4-2.4-44.4-2.55-15.75-15.75v-28.35l17.25-17.25h55.95l15.15,15.15-18.45,18.45-10.2-10.2h-28.8l-3.9,3.9v8.25l2.4,2.4,44.4,2.55,15.75,15.75Z"></path><style data-made-with="vivus-instant">.NyiWEkFw_0{stroke-dasharray:545 547;stroke-dashoffset:546;animation:NyiWEkFw_draw 2000ms linear 0ms forwards;}.NyiWEkFw_1{stroke-dasharray:468 470;stroke-dashoffset:469;animation:NyiWEkFw_draw 2000ms linear 111ms forwards;}.NyiWEkFw_2{stroke-dasharray:652 654;stroke-dashoffset:653;animation:NyiWEkFw_draw 2000ms linear 222ms forwards;}.NyiWEkFw_3{stroke-dasharray:652 654;stroke-dashoffset:653;animation:NyiWEkFw_draw 2000ms linear 333ms forwards;}.NyiWEkFw_4{stroke-dasharray:468 470;stroke-dashoffset:469;animation:NyiWEkFw_draw 2000ms linear 444ms forwards;}.NyiWEkFw_5{stroke-dasharray:531 533;stroke-dashoffset:532;animation:NyiWEkFw_draw 2000ms linear 555ms forwards;}.NyiWEkFw_6{stroke-dasharray:561 563;stroke-dashoffset:562;animation:NyiWEkFw_draw 2000ms linear 666ms forwards;}.NyiWEkFw_7{stroke-dasharray:587 589;stroke-dashoffset:588;animation:NyiWEkFw_draw 2000ms linear 777ms forwards;}.NyiWEkFw_8{stroke-dasharray:576 578;stroke-dashoffset:577;animation:NyiWEkFw_draw 2000ms linear 888ms forwards;}.NyiWEkFw_9{stroke-dasharray:576 578;stroke-dashoffset:577;animation:NyiWEkFw_draw 2000ms linear 1000ms forwards;}@keyframes NyiWEkFw_draw{100%{stroke-dashoffset:0;}}@keyframes NyiWEkFw_fade{0%{stroke-opacity:1;}94.44444444444444%{stroke-opacity:1;}100%{stroke-opacity:0;}}</style></svg>