<?xml version="1.0" encoding="UTF-8"?><svg id="Layer_1" xmlns="http://www.w3.org/2000/svg" viewBox="0 0 360 257"><defs><style>.cls-1{fill:#2c3475;}.cls-1,.cls-2{stroke-width:0px;}.cls-2{fill:#e3ea10;}</style></defs><path class="cls-2" d="m130.14,139.46l-.15.29c-2.04,1.74-5.52,1.74-7.56.15-1.89-1.6-2.62-4.51-1.74-6.83l-5.38-3.63c-2.76,5.09-1.45,11.63,3.05,15.26,2.18,1.74,4.94,2.62,7.71,2.62,2.91,0,5.96-1.02,8.14-3.05l1.16-1.16-5.23-3.63Z"/><path class="cls-2" d="m230.01,139.46l.15.29c2.04,1.74,5.52,1.74,7.56.15,1.89-1.6,2.62-4.51,1.74-6.83l5.23-3.63c2.76,5.09,1.45,11.63-3.05,15.26-2.18,1.74-4.94,2.62-7.71,2.62-2.91,0-5.96-1.02-8.14-3.05l-1.16-1.16,5.38-3.63Z"/><path class="cls-1" d="m323.78,140.19c-8,6.25-12.5,14.39-16.86,22.1-.58,1.02-1.16,2.18-1.89,3.2-4.36,7.71-8.43,13.52-15.26,18.75-4.8,3.78-10.61,5.96-15.99,5.96-1.89,0-3.78-.29-5.52-.87-9.16-3.05-13.37-9.3-12.79-18.75,1.02-14.39,12.65-24.71,19.48-29.51,5.82-4.22,12.5-7.41,19.34-9.6,6.69-2.04,13.52-3.2,20.35-3.2h0c8,0,15.41,1.45,21.95,4.22-4.36,2.04-8.72,4.51-12.79,7.71h0Zm-42.31-33.73c3.63-19.63.87-32.13-1.31-38.23,13.96.58,30.09,6.25,47.98,16.86-.44,17.15-5.52,31.98-7.71,37.22-1.89-.15-3.78-.29-5.67-.29h0c-7.56,0-15.12,1.16-22.24,3.49-.29.15-.58.15-.87.29,1.45-2.76,2.47-5.67,3.49-8.58l.87-2.33-2.04-1.31c-.58-.44-1.16-.73-1.74-1.16-3.05-2.04-6.54-4.22-10.76-5.96Zm-5.96-1.74c-4.94-1.02-10.9-1.02-18.17.87-1.89.44-3.78,1.16-5.82,2.04l-10.18-21.37c2.62-3.78,9.45-12.36,22.24-16.14,3.2-.87,6.54-1.45,10.03-1.74,1.6,3.49,5.52,15.41,1.89,36.34Zm-39.98-21.08c-22.1-5.09-34.31-29.37-37.36-36.34,2.18-4.94,12.07-22.24,30.97-30.82,17.45-7.85,37.51-6.25,59.9,4.8,24.28,11.92,37.36,30.97,38.96,56.55-25.73-14.54-48.12-19.04-66.44-13.67-15.56,4.65-23.41,15.26-26.02,19.48h0Zm-111.07,0c-2.62-4.22-10.47-14.83-26.17-19.48-18.32-5.38-40.71-.87-66.44,13.67,1.6-25.59,14.68-44.63,38.96-56.55,22.39-11.05,42.6-12.65,59.9-4.8,18.9,8.58,28.79,25.88,30.97,30.82-2.91,6.98-14.97,31.26-37.22,36.34Zm-15.99,23.84c-2.04-.87-3.93-1.6-5.82-2.04-7.27-1.89-13.23-1.74-18.17-.87-3.63-20.93.29-32.71,1.89-36.34,3.49.29,6.83.87,10.03,1.74,12.79,3.78,19.63,12.21,22.24,16.14l-10.18,21.37Zm-29.95-1.02c-4.22,1.74-7.56,3.93-10.76,6.11-.58.44-1.16.87-1.74,1.16l-2.04,1.31.87,2.33c1.02,2.91,2.18,5.82,3.49,8.58-.29-.15-.58-.15-.87-.29-7.27-2.33-14.83-3.49-22.39-3.49-1.89,0-3.78.15-5.67.29-2.04-5.38-7.27-20.06-7.71-37.22,17.88-10.61,34.02-16.14,47.98-16.86-2.04,5.96-4.8,18.46-1.16,38.09h0Zm6.25,34.6c6.83,4.8,18.46,15.12,19.48,29.51.73,9.45-3.63,15.7-12.79,18.75-1.74.58-3.49.87-5.52.87-5.23,0-11.05-2.18-15.99-5.96-6.69-5.23-10.76-11.05-15.26-18.75-.58-1.02-1.16-2.18-1.89-3.2-4.36-7.85-8.87-15.99-16.86-22.1-3.93-3.05-8.29-5.67-13.08-7.56,6.54-2.76,13.96-4.22,21.95-4.22,6.83,0,13.67,1.02,20.35,3.2,7.12,2.04,13.81,5.38,19.63,9.45Zm242.2-17.88c2.62-6.83,7.41-21.66,7.56-38.82.29-21.66-6.83-51.17-42.6-68.76-18.9-9.3-46.81-17.01-72.69-.87-14.54,9.01-23.41,22.53-26.46,29.37-4.65-.58-9.01-.73-12.79-.73h0c-3.78,0-8.14.15-12.79.73-3.05-6.83-11.92-20.21-26.46-29.37-25.88-16.14-53.79-8.43-72.69.87C32.44,33.04,25.17,62.7,25.46,84.36c.15,17.3,4.94,32.13,7.56,38.82-9.3,1.74-18.03,5.38-25.44,11.63,3.05.15,10.76,2.76,12.65,3.49,4.36,1.74,8.43,3.93,12.07,6.83,8,6.25,12.36,14.97,17.15,23.55,4.65,8.29,9.16,14.68,16.72,20.64,5.52,4.36,12.65,7.27,19.77,7.27,2.47,0,5.09-.44,7.41-1.16,11.78-3.93,17.88-12.79,17.01-25.15-.73-9.45-5.23-17.88-11.63-25.01,2.62-.15,5.52-.87,8.58-2.33l-2.91-5.52c-5.52,2.76-10.61,1.45-13.08.58-11.05-3.49-16.28-12.5-16.28-12.5h0c-1.45-2.33-2.62-4.94-3.63-7.85,7.27-4.8,14.97-9.74,29.66-6.11,5.82,1.45,12.36,5.67,16.72,8.72l41.29,28.64v-14.54l-6.25-4.36v6.83l-31.26-21.81h0l-7.27-5.09,9.45-19.77c12.65-2.18,24.28-10.18,33.73-22.97,5.09-6.83,8.29-13.37,9.89-16.86,4.51-.58,8.87-.73,12.65-.73s8.14.15,12.65.73c1.6,3.63,4.8,10.03,9.89,16.86,9.45,12.79,21.08,20.79,33.73,22.97l9.45,19.92-7.27,5.09h0l-31.26,21.81v-6.83l-6.25,4.36v14.54l41.29-28.64c4.51-3.05,11.05-7.27,16.72-8.72,14.83-3.78,22.39,1.16,29.66,6.11-1.02,2.76-2.18,5.38-3.63,7.85h0s-5.23,9.01-16.28,12.5c-2.33.87-7.56,2.18-13.08-.58l-2.91,5.52c2.91,1.45,5.96,2.18,8.58,2.33-6.54,7.12-11.05,15.56-11.63,25.01-.87,12.21,5.23,21.23,17.01,25.15,2.47.87,4.94,1.16,7.41,1.16,6.98,0,14.25-2.91,19.77-7.27,7.56-5.82,12.07-12.36,16.72-20.64,4.94-8.58,9.16-17.3,17.15-23.55,3.63-2.91,7.71-5.23,12.07-6.83,1.89-.73,9.6-3.34,12.65-3.49-7.41-6.25-16.14-10.03-25.44-11.78h0Z"/><path class="cls-1" d="m234.23,155.45v28.49l-16.14,16.28v-52.77l-6.25,4.36v54.66h0v25.15l-13.96,13.37h-14.54v-14.1c1.6-.58,2.91-2.04,3.49-2.91,1.02-1.45,1.45-2.91,1.6-4.22.15-.73.15-1.45.29-2.18,0-.44.15-.87.15-1.45.15-1.16.73-2.33,1.45-3.05.58-.73,1.6-1.16,2.33-1.16s1.45.15,2.04.58c.73.44,1.31,1.16,1.74,2.04l5.38-3.2c-1.02-1.74-2.33-3.05-3.78-4.07-1.74-1.16-3.78-1.74-5.82-1.6-2.47.15-4.94,1.31-6.69,3.2-1.45,1.6-2.47,3.78-2.91,6.25-.15.58-.15,1.31-.29,1.89,0,.58-.15,1.02-.15,1.6-.15.87-.29,1.31-.58,1.74-.29.29-.58.58-.73.73-.44.15-.73.15-1.02.15s-.58,0-1.02-.15c-.15-.15-.44-.29-.73-.73-.29-.29-.44-.87-.58-1.74.15-.58.15-1.02.15-1.6s-.15-1.31-.29-1.89c-.44-2.47-1.45-4.51-2.91-6.25-1.74-1.89-4.22-3.05-6.69-3.2-2.04-.15-4.07.44-5.82,1.6-1.45,1.02-2.76,2.33-3.78,4.07l5.38,3.2c.44-.87,1.16-1.6,1.74-2.04.73-.29,1.45-.44,2.18-.44.87,0,1.74.44,2.33,1.16.73.73,1.16,1.89,1.45,3.05.15.44.15.87.15,1.45,0,.73.15,1.45.29,2.18.15,1.16.58,2.62,1.6,4.07.58.87,1.89,2.18,3.49,2.91v14.1h-14.54l-13.96-13.37v-25.01h0v-54.81l-6.25-4.36v52.77l-16.28-16.28v-28.35h-.87c-1.89,0-3.63-.44-5.38-1.31v32.27l22.39,22.68v25.01l17.74,17.01h40.71l17.74-17.01v-25.15l22.39-22.68v-32.27c-1.74.87-3.49,1.31-5.38,1.31-.29.15-.58.15-.87,0"/></svg>